<?xml version="1.0" encoding="UTF-8"?>
<svg xmlns="http://www.w3.org/2000/svg" viewBox="0 0 96 96" width="96" height="96">
  <defs>
    <filter id="shadow" x="-20%" y="-20%" width="140%" height="140%">
      <feDropShadow dx="0" dy="2" stdDeviation="2" flood-opacity="0.35"/>
    </filter>
  </defs>
  <ellipse cx="48" cy="90" rx="32" ry="6" fill="#000" opacity="0.18"/>
  <g filter="url(#shadow)"><rect x="36" y="80" width="24" height="4" fill="rgba(0,0,0,0.2)" />
  <rect x="28" y="12" width="40" height="12" fill="#4a3728" />
  <rect x="24" y="16" width="48" height="8" fill="#4a3728" />
  <rect x="32" y="24" width="32" height="28" fill="#ffdbac" />
  <rect x="36" y="32" width="8" height="8" fill="#1a2332" />
  <rect x="52" y="32" width="8" height="8" fill="#1a2332" />
  <rect x="40" y="44" width="16" height="4" fill="#e8b896" />
  <rect x="24" y="52" width="48" height="32" fill="#9b59b6" />
  <rect x="28" y="56" width="40" height="8" fill="#8e44ad" />
  <rect x="20" y="56" width="8" height="28" fill="#9b59b6" />
  <rect x="68" y="56" width="8" height="28" fill="#9b59b6" />
  <rect x="20" y="56" width="8" height="20" fill="#ffdbac" />
  <rect x="68" y="56" width="8" height="20" fill="#ffdbac" />
  <rect x="28" y="84" width="16" height="12" fill="#34495e" />
  <rect x="52" y="84" width="16" height="12" fill="#34495e" />
  <rect x="28" y="92" width="16" height="4" fill="#1a2332" />
  <rect x="52" y="92" width="16" height="4" fill="#1a2332" /></g>
</svg>