<?xml version="1.0" encoding="UTF-8"?>
<svg xmlns="http://www.w3.org/2000/svg" viewBox="0 0 96 96" width="96" height="96">
  <defs>
    <filter id="shadow" x="-20%" y="-20%" width="140%" height="140%">
      <feDropShadow dx="0" dy="2" stdDeviation="2" flood-opacity="0.35"/>
    </filter>
  </defs>
  <ellipse cx="48" cy="90" rx="32" ry="6" fill="#000" opacity="0.18"/>
  <g filter="url(#shadow)">
    <rect x="32" y="24" width="32" height="28" fill="#ffdbac"/>
    <rect x="36" y="32" width="8" height="8" fill="#1a2332"/>
    <rect x="52" y="32" width="8" height="8" fill="#1a2332"/>
    <rect x="40" y="44" width="16" height="4" fill="#e8b896"/>
    <rect x="28" y="12" width="40" height="10" fill="#f0f0f0"/>
    <rect x="20" y="52" width="56" height="36" fill="#ffffff"/>
    <rect x="24" y="56" width="48" height="8" fill="#e8e8e8"/>
    <rect x="44" y="58" width="8" height="28" fill="#c9a227"/>
    <rect x="14" y="56" width="10" height="30" fill="#f5f5f5"/>
    <rect x="72" y="56" width="10" height="30" fill="#f5f5f5"/>
    <rect x="14" y="56" width="10" height="18" fill="#ffdbac"/>
    <rect x="72" y="56" width="10" height="18" fill="#ffdbac"/>
    <rect x="28" y="84" width="16" height="12" fill="#2c3e50"/>
    <rect x="52" y="84" width="16" height="12" fill="#2c3e50"/>
  </g>
</svg>
