<?xml version="1.0" encoding="UTF-8"?>
<svg xmlns="http://www.w3.org/2000/svg" viewBox="0 0 96 96" width="96" height="96">
  <defs>
    <filter id="shadow" x="-20%" y="-20%" width="140%" height="140%">
      <feDropShadow dx="0" dy="2" stdDeviation="2" flood-opacity="0.35"/>
    </filter>
  </defs>
  <ellipse cx="48" cy="90" rx="32" ry="6" fill="#000" opacity="0.18"/>
  <g filter="url(#shadow)"><rect x="40" y="80" width="16" height="4" fill="rgba(0,0,0,0.2)" />
  <rect x="32" y="16" width="32" height="12" fill="#3d4a5c" />
  <rect x="28" y="20" width="40" height="8" fill="#3d4a5c" />
  <rect x="36" y="28" width="24" height="24" fill="#ffdbac" />
  <rect x="32" y="24" width="32" height="8" fill="#5a4030" />
  <rect x="28" y="32" width="40" height="36" fill="#3d8bfd" />
  <rect x="40" y="36" width="16" height="28" fill="#2a6fd4" />
  <rect x="24" y="40" width="8" height="24" fill="#3d8bfd" />
  <rect x="56" y="40" width="8" height="24" fill="#3d8bfd" />
  <rect x="32" y="64" width="12" height="20" fill="#2c3e50" />
  <rect x="44" y="64" width="12" height="20" fill="#2c3e50" />
  <rect x="28" y="80" width="16" height="8" fill="#1a2332" />
  <rect x="44" y="80" width="16" height="8" fill="#1a2332" />
  <rect x="24" y="36" width="8" height="8" fill="#f4d35e" />
  <rect x="56" y="36" width="8" height="8" fill="#f4d35e" />
  <rect x="36" y="44" width="24" height="8" fill="#f4d35e" /></g>
</svg>